<svg width="181" height="170" viewBox="0 0 181 170" fill="none" xmlns="http://www.w3.org/2000/svg">
<path d="M179 85C179 130.723 139.497 168 90.5 168C41.5028 168 2 130.723 2 85C2 39.2766 41.5028 2 90.5 2C139.497 2 179 39.2766 179 85Z" fill="#D9D9D9" stroke="black" stroke-width="4"/>
<path d="M51 93C48.984 93.252 49.9186 105.198 50.0556 106.5C50.5709 111.395 56.2046 118.42 60.9444 120C69.3286 122.795 77.7271 124.7 86.5556 126.778C94.0312 128.537 103.528 124.494 110.5 122.944C116.066 121.708 120.767 110.598 123 106C127.009 97.7465 126 88.9646 126 80" stroke="black" stroke-width="3" stroke-linecap="square"/>
<path d="M62 43C62 47.8201 64.0229 54.1145 65 59" stroke="black" stroke-width="3" stroke-linecap="square"/>
<path d="M101 43C106.547 43.6163 105 52.1273 105 56" stroke="black" stroke-width="3" stroke-linecap="square"/>
</svg>
