<svg width="276" height="242" viewBox="0 0 276 242" fill="none" xmlns="http://www.w3.org/2000/svg">
<g id="Staroff" filter="url(#filter0_d_1_2)">
<path d="M138 10L167.187 92.5725H261.637L185.225 143.605L214.412 226.178L138 175.145L61.5879 226.178L90.7747 143.605L14.3627 92.5725H108.813L138 10Z" fill="#D9D9D9"/>
<path d="M139.414 9.50011L138 5.49905L136.586 9.50011L107.752 91.0725H14.3627H9.41586L13.5296 93.8199L88.9718 144.205L60.1737 225.678L58.6707 229.93L62.421 227.425L138 176.949L213.579 227.425L217.329 229.93L215.826 225.678L187.028 144.205L262.47 93.8199L266.584 91.0725H261.637H168.248L139.414 9.50011Z" stroke="black" stroke-width="3"/>
</g>
<defs>
<filter id="filter0_d_1_2" x="0.469055" y="0.998108" width="275.062" height="240.683" filterUnits="userSpaceOnUse" color-interpolation-filters="sRGB">
<feFlood flood-opacity="0" result="BackgroundImageFix"/>
<feColorMatrix in="SourceAlpha" type="matrix" values="0 0 0 0 0 0 0 0 0 0 0 0 0 0 0 0 0 0 127 0" result="hardAlpha"/>
<feOffset dy="4"/>
<feGaussianBlur stdDeviation="2"/>
<feComposite in2="hardAlpha" operator="out"/>
<feColorMatrix type="matrix" values="0 0 0 0 0 0 0 0 0 0 0 0 0 0 0 0 0 0 0.25 0"/>
<feBlend mode="normal" in2="BackgroundImageFix" result="effect1_dropShadow_1_2"/>
<feBlend mode="normal" in="SourceGraphic" in2="effect1_dropShadow_1_2" result="shape"/>
</filter>
</defs>
</svg>
